<mxfile host="Electron" modified="2023-04-21T12:52:01.354Z" agent="Mozilla/5.0 (Macintosh; Intel Mac OS X 10_15_7) AppleWebKit/537.36 (KHTML, like Gecko) draw.io/21.1.2 Chrome/106.0.5249.199 Electron/21.4.3 Safari/537.36" version="21.1.2" etag="heFmerUB0v1mPxJ3hj1Z" type="device" pages="2">
  <diagram name="Dataset" id="Q7smsWNgiOEbqjcdMYXz">
    <mxGraphModel dx="2074" dy="1165" grid="1" gridSize="10" guides="1" tooltips="1" connect="1" arrows="1" fold="1" page="1" pageScale="1" pageWidth="1169" pageHeight="827" math="0" shadow="0">
      <root>
        <mxCell id="0" />
        <mxCell id="1" parent="0" />
        <mxCell id="7zZgBYTAWc0PgDKx9XQQ-36" style="edgeStyle=orthogonalEdgeStyle;rounded=0;orthogonalLoop=1;jettySize=auto;html=1;exitX=1;exitY=0.5;exitDx=0;exitDy=0;entryX=0;entryY=0.5;entryDx=0;entryDy=0;strokeWidth=4;" parent="1" source="7zZgBYTAWc0PgDKx9XQQ-1" target="7zZgBYTAWc0PgDKx9XQQ-35" edge="1">
          <mxGeometry relative="1" as="geometry" />
        </mxCell>
        <mxCell id="7zZgBYTAWc0PgDKx9XQQ-1" value="&lt;h1&gt;pointcloudset.Dataset&lt;/h1&gt;&lt;div&gt;&lt;br&gt;&lt;/div&gt;&lt;div&gt;&lt;br&gt;&lt;/div&gt;&lt;div&gt;&lt;br&gt;&lt;/div&gt;&lt;div&gt;&lt;br&gt;&lt;/div&gt;&lt;div&gt;&lt;br&gt;&lt;/div&gt;&lt;div&gt;&lt;br&gt;&lt;/div&gt;&lt;div&gt;&lt;br&gt;&lt;/div&gt;&lt;div&gt;&lt;br&gt;&lt;/div&gt;&lt;div&gt;&lt;br&gt;&lt;/div&gt;&lt;div&gt;&lt;br&gt;&lt;/div&gt;&lt;div&gt;&lt;br&gt;&lt;/div&gt;&lt;div&gt;&lt;br&gt;&lt;/div&gt;&lt;div&gt;&lt;br&gt;&lt;/div&gt;&lt;div&gt;&lt;br&gt;&lt;/div&gt;&lt;div&gt;&lt;br&gt;&lt;/div&gt;&lt;div&gt;&lt;br&gt;&lt;/div&gt;&lt;div&gt;&lt;br&gt;&lt;/div&gt;&lt;div&gt;&lt;br&gt;&lt;/div&gt;&lt;div&gt;&lt;br&gt;&lt;/div&gt;&lt;div&gt;&lt;br&gt;&lt;/div&gt;&lt;div&gt;&lt;br&gt;&lt;/div&gt;&lt;div&gt;&lt;br&gt;&lt;/div&gt;&lt;div&gt;&lt;br&gt;&lt;/div&gt;&lt;div&gt;&lt;br&gt;&lt;/div&gt;&lt;div&gt;&lt;br&gt;&lt;/div&gt;&lt;div&gt;&lt;br&gt;&lt;/div&gt;&lt;div&gt;&lt;br&gt;&lt;/div&gt;&lt;div&gt;&lt;br&gt;&lt;/div&gt;&lt;div&gt;&lt;br&gt;&lt;/div&gt;&lt;div&gt;&lt;br&gt;&lt;/div&gt;&lt;div&gt;&lt;br&gt;&lt;/div&gt;&lt;div&gt;&lt;br&gt;&lt;/div&gt;&lt;div&gt;&lt;br&gt;&lt;/div&gt;&lt;div&gt;&lt;br&gt;&lt;/div&gt;&lt;div&gt;&lt;br&gt;&lt;/div&gt;&lt;div&gt;&lt;br&gt;&lt;/div&gt;&lt;div&gt;&lt;br&gt;&lt;/div&gt;&lt;div&gt;&lt;br&gt;&lt;/div&gt;&lt;div&gt;&lt;br&gt;&lt;/div&gt;&lt;div&gt;&lt;br&gt;&lt;/div&gt;&lt;div&gt;&lt;br&gt;&lt;/div&gt;&lt;div&gt;&lt;br&gt;&lt;/div&gt;&lt;div&gt;&lt;br&gt;&lt;/div&gt;&lt;div&gt;&lt;br&gt;&lt;/div&gt;&lt;div&gt;&lt;br&gt;&lt;/div&gt;&lt;div&gt;&lt;br&gt;&lt;/div&gt;&lt;div&gt;&lt;br&gt;&lt;/div&gt;&lt;div&gt;&lt;br&gt;&lt;/div&gt;&lt;div&gt;&lt;br&gt;&lt;/div&gt;&lt;div&gt;&lt;br&gt;&lt;/div&gt;&lt;div&gt;&lt;br&gt;&lt;/div&gt;" style="whiteSpace=wrap;html=1;fillColor=#1ba1e2;strokeColor=#006EAF;fontColor=#ffffff;" parent="1" vertex="1">
          <mxGeometry x="590" y="30" width="850" height="780" as="geometry" />
        </mxCell>
        <mxCell id="7zZgBYTAWc0PgDKx9XQQ-4" value="&lt;h2&gt;Pointcloud&lt;/h2&gt;" style="whiteSpace=wrap;html=1;aspect=fixed;fillColor=#d80073;strokeColor=#A50040;fontColor=#ffffff;" parent="1" vertex="1">
          <mxGeometry x="1300" y="192" width="120" height="120" as="geometry" />
        </mxCell>
        <mxCell id="7zZgBYTAWc0PgDKx9XQQ-5" value="&lt;h2&gt;Pointcloud&lt;/h2&gt;" style="whiteSpace=wrap;html=1;aspect=fixed;fillColor=#d80073;strokeColor=#A50040;fontColor=#ffffff;" parent="1" vertex="1">
          <mxGeometry x="1160" y="194" width="116" height="116" as="geometry" />
        </mxCell>
        <mxCell id="7zZgBYTAWc0PgDKx9XQQ-6" value="&lt;h2&gt;Pointcloud&lt;/h2&gt;" style="whiteSpace=wrap;html=1;aspect=fixed;fillColor=#d80073;strokeColor=#A50040;fontColor=#ffffff;" parent="1" vertex="1">
          <mxGeometry x="1020" y="196" width="116" height="116" as="geometry" />
        </mxCell>
        <mxCell id="7zZgBYTAWc0PgDKx9XQQ-8" value="&lt;h2&gt;data&lt;/h2&gt;" style="text;html=1;strokeColor=none;fillColor=none;align=left;verticalAlign=middle;whiteSpace=wrap;rounded=0;fontColor=#FFFFFF;" parent="1" vertex="1">
          <mxGeometry x="640" y="237" width="60" height="30" as="geometry" />
        </mxCell>
        <mxCell id="7zZgBYTAWc0PgDKx9XQQ-10" value="" style="shape=image;verticalLabelPosition=bottom;labelBackgroundColor=default;verticalAlign=top;aspect=fixed;imageAspect=0;image=data:image/png,iVBORw0KGgoAAAANSUhEUgAAATYAAACiCAMAAAD84hF6AAABXFBMVEX///8EJVvuEWH8bmz/wR7///79//8EJVoFJFv///xEVHUAHlgFJFwADEuxusb//f8AF1T7b2roAFvnfaLwAF3EztV0f5IAAEcAAEv///bwfnoAAET40nLdX43s8/UAFE0AAECerLz2wCcvQmIAAEEDJGDzrq0FJVYAADvxoaKBjJsAGlUAAFB/ip8AC0/ynJr714Nmco38aGcAImL///EAFlj/wCL3cWv345v/am/9bWfU3uTdAFfh6e//9/8AGE8AADYAFUGNm6T8/Nj68sDy3or0x0rxvxf13Hz//OP61W5/ipS9zNRicIPxwzb587byy1vwyMP549ruvLjryUL+8Ov59MLpcHLngIH65uzwnZn419Tt1eXTAFvoosLRI2Xyw9vTQncgNVvfiKwAJEzVbZRQXXfrtc5KW3scMFcwQ20FIULwsKX51e3/7vxQZnxAVYFtgJ4jNljihoV0TikcAAAY/0lEQVR4nO2djX/T1NfAbyi5SZo06ea6NEazljZL2Ut1LV3ZujIc79iJyM9nKAg6cAK/R3iU///zec65N69N2nU4JmiO8rYlTfLNebvnnGSE5JJLLrnkkksuueSSSy655JJLLrnkkksuueSSSy655JJLLrnkkksuueSSSy655JLLxyyiiL/w91xmEOREqUINA/9FLZKDm0UUwKQoVKTXLt/98rolKoryd5/SxyAKcDMMeunyhfPnz2/eUGhObQZB7RLppes3zzO5dZ2SnNt0UYhoATXDuvYZItvchN9uK8bZYDuzmyMm7Uc8jQODedI7N745H8pdSukpfG620PrXK1y+3uMh6AxEEcXR/kYgA6L81euDSEDJpcsxaIjtVM41W5xWr9crg/TKtv4ejzMuxfaqL9VFwPYXcwXDosq9m7eYfW6eCbaS6wmyIMue1Nbf54ESQklRleGogqBp5UUw2r+ITVGu3WVOLfztvWPTPA1FAGzv8TgJAaMsyjI76l/DRiF2QoYr3rlx4XyoZqG2cdun8PGgjsapejpnSZY0CUTQSmeGTURtE0DgsFIZjfSdgoKoGIYIyZp1+Ztb51PyGcdG0e8hWnqanttZ0iQXr0CQzw4bN1KBy7tjAx2CtMO6/m0GNIaNICnApdxffvCdctrYtL8bGyQk72algOLa7Qsc02YaG/tQqtx/WJjr9B+crpF+ANiUk2OjoohpBzo1RmwcGsMG6kbJd287ncJcYbv/6BQv4IPARk5upAomydb1/6RoBQgv3AMdpvT75X6/ALK1XVjGA5+SyoXYJOHvw2acaJ2gWKCbimVY//PtrfHwCcIc3a3b16hiUeP+QafAZa5wkR34dOSD0LYTYsMlAaGhU0sr3K1vr1sQPJVHD7fm5nxs/c4X5F+NDW3ausPLQ7cynNqFby5bqJI/fNEPmIGu/buxoZtXlDt8JZXB7Pz5b27cUQyF/rDc72yBkvV9bIXCj3BYGhzfwBz4ZBTjZfaPCxtVDBGWn9fuZtnnJnNsd69ZikGVBw8hdhZi0il8EQYEnv6etEISb098XNjA9CDpyHZqGB0u3LwHzCg4tc52oT+3HecWw2Yw90hPtG5QEjnSbNhOu5nxzkZqYHkoI3z69nn5DqrQDxcB2NzWVqEwARsFtK8fPz4RN0U8sbZhvflUa5jvrG300peYYaS5bW5uXrhxBxtXV5bBODEYJHUtbqQGff3sp52dzx/PZqU+3DiDmbBhlf5ECnfcxu+O7d5mZiTYPH/rLiYdsJI66GzPYQwIUw8u23Nf4NoCTI2SK09+mj93bmHh6etpQQExMVIicYaDwcBxCK+AwxenY6Mir8fDbqNRZVQZOpSdPGXZ09i1siPwr8H2FRB+JNBviiBjFjEFG3xuwnQSjltRbmQ5NdC/m/csCgd69PZgDJcPrbBV+BH9mQjLrZ9/2QFo586dm38SBddsMeD6K+sN1bZNu7nbWB/BQbA2MA0bbGIRMqzvN3Zts7pWrZp26XC/PmDk2G1Lbk5ZjHb0xYYH24OYplf8Go6E0Gic8hRs8CkWGQJyJpXKULEi3aXK7QlO7RI2XH642N/qZFErzPW3OxcxCFDy+HOAxmX+EyJOjKdwLRg69ENzSdUEVlqTltZKew7e2WnYLIXQ+qtau+fCPoImy7Czttq2D+sAVDHGWzbM9gf7reqqDJvLsLngad32WvOPAVP22bApokFWWtVA1q7G1ZSSL1MWCvb55R1YR1ELMjV0a1nYtvr95e8xElx5toN6xn4tzH9iUHGStuHl0GGx2vU013VlzdXwT7e9WyfTjdSi9ecl2fM8yYV9NAQhy5LnaWuejtxS2Mhwv9XrAls4BuMmybCbVm4eDRmOmbBZpG5rgob1cpDSfgK38mXaq317Ha6QkvsPO3N9TG87aWqdzhc/oHEYT57On4tk4RMypa4M16O3diWsQcsC+13y4HJce4OikQpZZUo0t2Gj2u0iYZepjiBrXI0kWa2+cZR4owsPbsBRei5QdXFjzRcBoGu7tTpRZsNmkFFT9li9WZLkcpF58UjGsN06f/PyJcrKQ9nGib86hYePMOkApxaHxrFNzHlFpOYKKZG0UgONVM7Ahr2kSkkF1cILkF00btCccF+598ohcT+OtZ/1JqgX/zboJeqnBPcJfIImCXiLwFf4KjcBGytXDmtd2AfBe4J66MRdWxrb5u1rkN+CU9vezqJWwFSkc/DgCkax178y+5wVGyF6M4OaILvu0pGzK2QZKajGwFZlvOc+Y3SJghTurK0WYyFBxBx6xe66PgsNaKFxh//yvOoLahlGuCbMwiaK1FKcP8sShy+58tUhn4iZiO2uZUFkezC+IAh0bQ49HTg1uJyYU0tgy4ykuPASh6YsRIoSaRvwKv3hCT6aBDZDcb7qatGWqHJyfGfteXWRxEMc0Wuuyz8K9Yv94e8BDF1PqG4QJahHTjJS8FFvel2Pna0kubUKavQUI715jV6hjx5ug671M1wa2OfW20ciAWX77en8mKodh40c9SQhy0hBNNWT5QxshCz2AlXBZiAEEvTyMfieZg4i5aTU2UWd4h8MRi2rILCLwGlrkieZOtZkp2EDqCu2Jnt8H6mmsyZXQpLYLkMwWN6e294qzCWVrMDUb67w6SMFMy1wamloLAGZgA2yK92Ga/bVXmDdPZVFRexSsognZBjpoOXrGGwid3tmSXrp7ZptVfJ1SHKl1RfhMAec20qPeX9kJmht83nj6Kj4sgTuUUYVhDjhyUtOEBYysLHpNFBZDWIKtp0FzdwDX0GTy5NEJN08f43Q7w62UsGgD6rX728XDh7gwoGCU5vPgHYMtoYaaQiEzbZZfvXqlWn2MM7FDC+pbRu7rm9wrrT71UoFlwfOoN4ooX/3lbU5BGfEr8agtq/PkuaWd/cG/GQcvWi6cFju4tt7wbRHGhvPZgY2PyrcFbe9CBjHF13JBOTCJYUsdwqdjFQN8t7+RZ6pwUoqS9WmYYPTqZiRQ/K09n/3BqzfWllv7bpx001go7bW5dgkrVx0wmUshZxKDrCV9qIcVjcDA9YgzkD4wyiBO+lX1SACSya1JmHDdqbo/JcnL3Cibu8IwmpqrWp9Fl+RXoCEfHk7DQ0SuK3ttz9gDmj89nQ8fs6CLXJS7Gxq65j0wUoLDujs14RJ2lapYvzHr3ryK8oLoQqrg9TNbhBP1RckHBZaLGu+sqkNtFyKdRas55Oh52u7JKzpvsWNY8N8Ff4v7mocsSaph8z+x69pDBto2/9mhAIA+el9rFYauJJaODk2UaG7MY2y6+zikQOqQr02Sdv01lKXMZW06sBiO/FyqEWLoc27kuOHOcMfTsDwZ49YI5ydDavtVZroHMCHaq06yY6k+OkKWSx1/WxI6j4fGn79IYUtbqQUjTTu27YK29udzsGygXfs9bPJmjYVG/h2mysaZqLYyVXYOhzbjGAwK+0oNUka6WjlVbVaVgWtvOGvCf1BbKKXQtD20Mcj0pdcOQG17TC1DDw5HGpjFcKPumS/0IM2chobkK6bMmbVGKbc2gBvyLHY4BKWExWiOZbeglOD+3DlydPJinZMSCB621d7yB5LjhLLtYAehAs5E5vCShnrjVr1aiWWOCE2xw4VtFoJsBle4MuFpmORuHUpyqDZLbca9aFfckpjw2KMUqn5Jwof1RpNGBU8DlsB4ufDR+gdyM+4/Nw5Nw3cFGwrvtOB5KC3kjwZcLgVCF1aZt6G6kioM9Jp7J6jgyOmHMPm51WAzU9MWDoXLyqBn9h/vgKhFRJ6MiFvgzs4lLhb60rPu806q9G9C7a5uYcQPy36u18eejcjpWAh7Pwgp3Wbg6Tao4dvdL2ul6FtCnPrJDVYC1/3tBg2/6vkUA1W+6tHGAkipYZwyKqaSqyMmcZGX6kei+uQYprrWLPKLPgei61w8B0VseY91TqPw6YEvhrSBs2DNCa+UsFBppX28yxsLA4yHwVXFJETsRxxGMemRIfhdQ9JKB858RoZVpj8RyvCm5bCRvaXXI1hgxzpjf+Z74Ct31nGRcHT7PR2ZmwiafjnB2uDYsYGkGlkVUDCS1ZYxwZdIs8/IM9PYvNvw3ovXPULPXtlyKMo/8XKYQlJDWrthcmlXG5MGaQ5NiT0vyP08U8Lx8SCE2CTVzcyNhia0pSxQJHHRFH08Yk0hc1PNEbNKAWU5F7zjY5tBMPg1j5+amPYrFFNCv4pP3emdHCOw9Y5gMM9mz+3sHM8tJmwQSqxnrGBU5KmtGBEtOPxZl8GNnBOz7sRN3AI5TX7jT6kxC8qTcc2rEb7tvVpz0cch237IZzy5wvHhIITYIOlYia2JTkoLU7QNrhIZ1jR9XqdPb6wp0tyChsmOnb4ZVjTwzJUXq3ar9YrlD/VMw0bhoMQm9ogU2YEj8X2KfjJz2fzbDNhkydhc7O1DXmJkEgM9vYPd02zWm2XyuVer1yCVD6FDcjQo1VWYmN5INaJsLjrlm1vfcD8HJ3Yglnf2JWiipSG9aWJFddjIynDNpOqzYQN8o8J2DJbMNz908piyS6txorhrJiUxsZU8uUqlqVkLbYBVp7KtYZO/aG0LGyyoLputIsHAf8jxga/jRrVVW+svJSQSNuwFugcthGZHMOGSYnndat/6sn8NY6Nradiu7jt+mTv9oFjo6I4PKqqrH8gebGLmoANgwesBppd2XXdJGVN9oRutTGcZKQMbvwIcsuZRO1DwiZkaRupfFVGPWCeKuZ5EroXw0ZZn2B0WNWEWDWKtfxk8HOuWtPjrYc4Niy6x3o7gtxb/GCwTUxAMrQNhxIq2OzS0LW7XexBYVNakrFDIIf1tlgk5agNQuuHpsq6hIwG70lDbIC/tepRNyWpbfg3FxbwLldO2TWHqR7CJGz0PWOTZ8UGS0hRGbZctsJn/Rm3216zbfXlqyKTqCScxOYTGb0x11hfgTXyA90D6K0oIxs3UhyT6HEHh5F4dZ9Y2e3yDxmbYpGjMv8y5hNq7eWKPnCcIBRmpLuRGFg21t8013pd3vHSQnOVlxySUabk3X7NXmyHJSytNlAMaxZshFx8z9jkWbEBuIrtap6/n3nEGnuwHIfFFSwHpmLDPMOCi6GV9T9rJQwp3BWynn5vMasFw9hKZp0UeUKIUzqwfM5+YvvMsQmzYzPIxqrmt4plNr0h8joIxRGy6dqGtXOkyxLlP5urrt9iwMxEqzm+CiWxAdv2PjEqLb4lojb12eptivhesBHA5g9USDxAjd1EWMqPlSlF0cICLmZcsIAwkzMvuPckbPw9HOiSwpnVyoa5ygrLfJdSPaMojoG89wJLixurguv3BrXD7LnaM8ImRtiE8puxb+KJDexgYRNio6TCC7iATf2TJuZ2sVMyCRsb/POHOaLbsmFjq5i38cDVZxip60mHDhaYhs2uX1eQtGo9c2l61tj8TpwS24r9TW97mjyOrV7yT17o7ZFEA4lOwaaENe/o8GCz9abf/ASX1cjC5rlLmAvD9S72PF7ilVz3K5puwJwZNkperHIfBXe86tB4wZD9bb/nuWN5W9h/AHdUHSvjiFR0Er0E/8FqyhKXCpYnx7REIStLgYPrekZWSKhVKKuBK05N9rXNldorhBqpQesz0za4g/xWawIyiGsOXJ+z1E0ZKdz1sj/voiGYZPuB7IUNvzg22GhUNO3FpHKyvw+bATZsrKax2TrhPVH47La/OtW8bmuY8ZaiM8O21w5rWWqR+kbq30XQhF6Y8ofahqgl7nRcUyfxRTiEi2EpWmrFKyB6w1Qltw2xcqymrZBWMMAly046bwOHZ/h4FMOLlm7Y1E3Vec8M22gtvErZHgUtE6xxs9G/WNIZN1L+FU8rrRB8jt/fB5sCR+WMwhHVG1UXW/Lt9ZQnV2grSIFcb8LEEceGcwLV6NNrA5KKpmeFTXSa4XlEdXqOQBl63dg3UyEBw8hLGmFDF7ZekzLKlHt212V1Eq05ZtUgFTMYKew2SPYQqo+NGPRlOCohqEfppVtqcfWeQoJCipFCeepzPsrHW3ijXTU2chRgg1Md8fEhGRQI1YdfqiIalK6YgpdhpOAJ/EaOtlRJriZFWvTHIwUpLG1kY0OjHMXmo8zR+NsUaIht09c2WCUUTh+bQpV6KSz+e67aXPdnIGnlqOriIwpCKgERh+iNcBYOvLhZ549p4beGR6bc1bw0tmHLc7syq5uptTolYYoMGrpfwg+TMf+v6spUbBZE46IaFN+0boOVo2J3gaaMFLEVTh0bHAgralJITiub3sb6+uILu7rKFEry26QxbNirD9qAgmAWRyz+OZXF2qrkaTEFjfK2N6rgN6k1wX5ZHwbn4tSlHltlsm/VnIljgdwG4NuwHPbjAtwyHW5XYlI8hU358X1gg4U1We8JXnzqVlLL5bLqD5NCkpFaXIng3FhRVmAVa9VcKh4dNZZMgAZw3Mj7RNhwscGHGVidqdnY2KvX9xaLdjuyOSzBTMXGFrTkDWSSLr8D8nM65ikjbGil39wx3o+24WGdVhCd/Dovm8f1C6pYyB/TNljnOF9p3MUL8CfYH5tfBmhdTXaXogG3qE9K1kv+eLDnsaHg1V673StrsEAIFing9oaTZkDiT8EMWwLP82RcxI4F5ji2W/+5/r6MlN0/fCyBLxWYQmDpMShty97/dYNB+hAbaOheFZI2vrUEuASPt/I8XNmO2ils1KCNVf41WIzjK7p4i0sLK+pwQFsP38ozDRtZbPtnC45i10mkzyK5HQ5TfnP5kgHriHcPCQsMW+bzHCL8Z5GNNn9nVmimDCC+zqql/1H2lwlS1EsAco0y73RKbFgJi7SglrLn9V5SHS6LUw9HZ2DR5hyWNeb6Jf7pMn90iD/+gAP+tdhzDIl0N/n+NkMZ2hpaBCs2lVcS6iaK9/j7jG5duH0HV2QGffcEBLA9m1A24idJj0peZI3MlPCRJsGt1cmG6jem5PiLyMThc8/FFkLseSGA6KnekOhVzTejEBtmdU6xjdAE100+A+F2XbxlZryvEmHjI54xbLh8a4dj/3JtGL8whVp3mX1+e82i7MUzfwHbuXM7j6dhMyy6b/LCfoAN7MeFbASSi40yT6o0LY4N7rm6KwlColUsu22s8OjtgEs0qEUNcAfrNRWf7Yv3Sbm3g9BYq2c3/Nj72xLYREK/cnn/BqS3n6jzKtalGzcv4NtRsHb617At7DyZ9vIeBZsD9daSECVcqERq9c8BGrCPTUhgg7zLOTJRv2IA1NYGtTg2aQwbvrjOIoNiswwROL4PBoNur1ocJF6jgdj4zXJT2ODvdTP0vW6rQmKnhRPlly5dwqE51iqKY2N/fkpmxLaw8/ljFhAmPoaLg3mKs2iWVOZ5UG/k3ebLOsVnafdrpTZKqXQ19pJFSkV8mtQuu4HuaD27WGH1cf1qFbbGfa6GRooT+1ggq2zYaz2XvT6RPU8Kpq2W7KMR6zLEsb0w276YY++mxEeMD6t4QiDtpdbe+PUYUWUhgY09oPCpZdAZsC3sPP3NoMYUEw1OBlLPYs2u4pmumUsbnJFoDeuB6KlxPKrv10y2R9VWFwd+7Zbq0R5WokiEJXFH38dHvtu9Xq/Uq1Zt+wXOOo99rkKjw9ad9IPXse/WnckvhRgz0q2twtynoAnHY5v/6dkVQtJL3gxhI1cDdskjfLaHR6jEaK6RtceoDplrZRiNkEahDR8KGW/B4EYOHGYPpT4aUpJ8cDnYLnbxGecaP6nJL4XAKc8Ytu25QuchoDgO28LOr6/Z26Uyzit1BAWHG2MXHFwvn3bEf43fc/Yai+AKDCUcGjL4+xLY6xYyLjr5+l58feS4vuCxuYpNu93M7RjTthEVI4Ztq98/ePuIHodtYeeX39E+acaUZ/oIOPNu4ZvPKMvwRBoMprF5ZPQ8mTcVW30U35Gj0DAzZA9Dsc6MKI5V14LPsywDBIf0LYSdeqpeFIPiVaYJ4pPe4TtbpmEDbevwpyA7hbmtg/sWvklmKrZ5dGqEsMehZnrpDBt0J+xyWA85dcFpa8ATN/geWe9BFLPdDjtMSCRzKiFjMDVbpm6Ix1/ub+Nbeeb6cwfL3zN9mIZtfufZlXd7W634T/rJFQq9zyLodqdw8XuFhcYp2Bbmf3099en4f4fgW2SUt5257U7/7SMRfy6HOAEbG4Le+eVnWD2f7nuLP0Jh10+/Xz44eHgfHJAPZIK2Lcw/fWJw//xv54aCkeN7bK5FPLKwgVN7zb3ujJHgHy4ZjnocG/xz5/PfpyY7uYxjQ2i//GzQM/tpEB+rjGnb/E9PrpA8gB4rCWzzO5+8pv57snOZIGyJDdgWIqf2+ITv7vw3SoDNf1Zt/unPRm6dxwvD9sl8zKnRE7+W+F8oDNtj9jDpAjg1whYO/6DF5PsSBui3n+YXMFPDF5Kwd4r93Wf1UQilr3/7DZxa/sPoTiT4mnXKNO3vPpOPSvCnbebp7YmF8p/llCvbycR/VjOXXHLJJZdccskll1xyySWXXHLJJZdccskll1xyySWXXHLJJZdccskll1xyySWXE8n/A3W44qkr6jH5AAAAAElFTkSuQmCC;" parent="1" vertex="1">
          <mxGeometry x="769.02" y="196" width="221.97" height="116" as="geometry" />
        </mxCell>
        <mxCell id="7zZgBYTAWc0PgDKx9XQQ-11" value="&lt;h2&gt;timestamp&lt;/h2&gt;" style="text;html=1;strokeColor=none;fillColor=none;align=left;verticalAlign=middle;whiteSpace=wrap;rounded=0;fontColor=#FFFFFF;" parent="1" vertex="1">
          <mxGeometry x="630" y="384" width="60" height="30" as="geometry" />
        </mxCell>
        <mxCell id="7zZgBYTAWc0PgDKx9XQQ-12" value="&lt;h2&gt;meta&lt;/h2&gt;" style="text;html=1;strokeColor=none;fillColor=none;align=left;verticalAlign=middle;whiteSpace=wrap;rounded=0;fontColor=#FFFFFF;" parent="1" vertex="1">
          <mxGeometry x="630" y="460" width="60" height="30" as="geometry" />
        </mxCell>
        <mxCell id="7zZgBYTAWc0PgDKx9XQQ-13" value="&lt;h2&gt;start_time&lt;/h2&gt;" style="text;html=1;strokeColor=none;fillColor=none;align=left;verticalAlign=middle;whiteSpace=wrap;rounded=0;fontColor=#FFFFFF;" parent="1" vertex="1">
          <mxGeometry x="630" y="537" width="60" height="30" as="geometry" />
        </mxCell>
        <mxCell id="7zZgBYTAWc0PgDKx9XQQ-14" value="&lt;h2&gt;end_time&lt;/h2&gt;" style="text;html=1;strokeColor=none;fillColor=none;align=left;verticalAlign=middle;whiteSpace=wrap;rounded=0;fontColor=#FFFFFF;" parent="1" vertex="1">
          <mxGeometry x="630" y="608" width="60" height="30" as="geometry" />
        </mxCell>
        <mxCell id="7zZgBYTAWc0PgDKx9XQQ-16" value="&lt;h2&gt;duration&lt;/h2&gt;" style="text;html=1;strokeColor=none;fillColor=none;align=left;verticalAlign=middle;whiteSpace=wrap;rounded=0;fontColor=#FFFFFF;" parent="1" vertex="1">
          <mxGeometry x="630" y="678" width="60" height="30" as="geometry" />
        </mxCell>
        <mxCell id="7zZgBYTAWc0PgDKx9XQQ-18" value="&lt;h2&gt;bounding_box&lt;/h2&gt;" style="text;html=1;strokeColor=none;fillColor=none;align=left;verticalAlign=middle;whiteSpace=wrap;rounded=0;fontColor=#FFFFFF;" parent="1" vertex="1">
          <mxGeometry x="630" y="749" width="60" height="30" as="geometry" />
        </mxCell>
        <mxCell id="7zZgBYTAWc0PgDKx9XQQ-22" value="&lt;h2&gt;[datetime.datetime]&lt;/h2&gt;" style="text;html=1;strokeColor=none;fillColor=none;align=left;verticalAlign=middle;whiteSpace=wrap;rounded=0;fontColor=#FFFFFF;" parent="1" vertex="1">
          <mxGeometry x="790" y="384" width="60" height="30" as="geometry" />
        </mxCell>
        <mxCell id="7zZgBYTAWc0PgDKx9XQQ-23" value="&lt;h2&gt;dict&lt;/h2&gt;" style="text;html=1;strokeColor=none;fillColor=none;align=left;verticalAlign=middle;whiteSpace=wrap;rounded=0;fontColor=#FFFFFF;" parent="1" vertex="1">
          <mxGeometry x="790" y="460" width="60" height="30" as="geometry" />
        </mxCell>
        <mxCell id="7zZgBYTAWc0PgDKx9XQQ-24" value="&lt;h2&gt;dateime.datetime&lt;/h2&gt;" style="text;html=1;strokeColor=none;fillColor=none;align=left;verticalAlign=middle;whiteSpace=wrap;rounded=0;fontColor=#FFFFFF;" parent="1" vertex="1">
          <mxGeometry x="790" y="537" width="60" height="30" as="geometry" />
        </mxCell>
        <mxCell id="7zZgBYTAWc0PgDKx9XQQ-25" value="&lt;h2&gt;dateime.datetime&lt;/h2&gt;" style="text;html=1;strokeColor=none;fillColor=none;align=left;verticalAlign=middle;whiteSpace=wrap;rounded=0;fontColor=#FFFFFF;" parent="1" vertex="1">
          <mxGeometry x="790" y="608" width="60" height="30" as="geometry" />
        </mxCell>
        <mxCell id="7zZgBYTAWc0PgDKx9XQQ-27" value="&lt;h2&gt;datetime.timedelta&lt;/h2&gt;" style="text;html=1;strokeColor=none;fillColor=none;align=left;verticalAlign=middle;whiteSpace=wrap;rounded=0;fontColor=#FFFFFF;" parent="1" vertex="1">
          <mxGeometry x="790" y="678" width="60" height="30" as="geometry" />
        </mxCell>
        <mxCell id="7zZgBYTAWc0PgDKx9XQQ-29" value="&lt;h2&gt;pd.DataFrame&lt;/h2&gt;" style="text;html=1;strokeColor=none;fillColor=none;align=left;verticalAlign=middle;whiteSpace=wrap;rounded=0;fontColor=#FFFFFF;" parent="1" vertex="1">
          <mxGeometry x="790" y="749" width="60" height="30" as="geometry" />
        </mxCell>
        <mxCell id="7zZgBYTAWc0PgDKx9XQQ-35" value="&lt;h2&gt;Stored Dataset&lt;/h2&gt;" style="whiteSpace=wrap;html=1;aspect=fixed;fillColor=#1ba1e2;fontColor=#ffffff;strokeColor=#006EAF;" parent="1" vertex="1">
          <mxGeometry x="1500" y="350" width="140" height="140" as="geometry" />
        </mxCell>
        <mxCell id="7zZgBYTAWc0PgDKx9XQQ-48" style="edgeStyle=orthogonalEdgeStyle;rounded=0;orthogonalLoop=1;jettySize=auto;html=1;exitX=1;exitY=0.5;exitDx=0;exitDy=0;entryX=0;entryY=0.25;entryDx=0;entryDy=0;strokeWidth=4;" parent="1" source="7zZgBYTAWc0PgDKx9XQQ-38" target="7zZgBYTAWc0PgDKx9XQQ-1" edge="1">
          <mxGeometry relative="1" as="geometry" />
        </mxCell>
        <mxCell id="7zZgBYTAWc0PgDKx9XQQ-38" value="&lt;h2&gt;Stored Dataset&lt;/h2&gt;" style="whiteSpace=wrap;html=1;aspect=fixed;fillColor=#1ba1e2;fontColor=#ffffff;strokeColor=#006EAF;" parent="1" vertex="1">
          <mxGeometry x="140" y="70" width="140" height="140" as="geometry" />
        </mxCell>
        <mxCell id="7zZgBYTAWc0PgDKx9XQQ-43" style="edgeStyle=orthogonalEdgeStyle;rounded=0;orthogonalLoop=1;jettySize=auto;html=1;exitX=1;exitY=0.5;exitDx=0;exitDy=0;entryX=0;entryY=0.5;entryDx=0;entryDy=0;strokeWidth=4;" parent="1" source="7zZgBYTAWc0PgDKx9XQQ-40" target="7zZgBYTAWc0PgDKx9XQQ-42" edge="1">
          <mxGeometry relative="1" as="geometry" />
        </mxCell>
        <mxCell id="7zZgBYTAWc0PgDKx9XQQ-40" value="&lt;h2&gt;ROS&lt;/h2&gt;&lt;div&gt;(bag, gb2, mcap)&lt;/div&gt;" style="whiteSpace=wrap;html=1;aspect=fixed;fillColor=#6a00ff;fontColor=#ffffff;strokeColor=#3700CC;" parent="1" vertex="1">
          <mxGeometry x="140" y="280" width="140" height="140" as="geometry" />
        </mxCell>
        <mxCell id="7zZgBYTAWc0PgDKx9XQQ-47" style="edgeStyle=orthogonalEdgeStyle;rounded=0;orthogonalLoop=1;jettySize=auto;html=1;exitX=1;exitY=0.5;exitDx=0;exitDy=0;entryX=0;entryY=0.5;entryDx=0;entryDy=0;strokeWidth=4;" parent="1" source="7zZgBYTAWc0PgDKx9XQQ-42" target="7zZgBYTAWc0PgDKx9XQQ-1" edge="1">
          <mxGeometry relative="1" as="geometry" />
        </mxCell>
        <mxCell id="7zZgBYTAWc0PgDKx9XQQ-42" value="&lt;h2&gt;potintloudset convert&lt;br&gt;CLI&lt;/h2&gt;" style="ellipse;whiteSpace=wrap;html=1;aspect=fixed;fillColor=#008a00;fontColor=#ffffff;strokeColor=#005700;" parent="1" vertex="1">
          <mxGeometry x="360" y="277" width="146" height="146" as="geometry" />
        </mxCell>
        <mxCell id="7zZgBYTAWc0PgDKx9XQQ-49" style="edgeStyle=orthogonalEdgeStyle;rounded=0;orthogonalLoop=1;jettySize=auto;html=1;exitX=1;exitY=0.5;exitDx=0;exitDy=0;entryX=0;entryY=0.75;entryDx=0;entryDy=0;strokeWidth=4;" parent="1" source="7zZgBYTAWc0PgDKx9XQQ-44" target="7zZgBYTAWc0PgDKx9XQQ-1" edge="1">
          <mxGeometry relative="1" as="geometry" />
        </mxCell>
        <mxCell id="7zZgBYTAWc0PgDKx9XQQ-44" value="&lt;h2&gt;ROS&lt;/h2&gt;&lt;div&gt;(bag, gb2, mcap)&lt;/div&gt;" style="whiteSpace=wrap;html=1;aspect=fixed;fillColor=#6a00ff;fontColor=#ffffff;strokeColor=#3700CC;" parent="1" vertex="1">
          <mxGeometry x="140" y="468" width="140" height="140" as="geometry" />
        </mxCell>
        <mxCell id="7zZgBYTAWc0PgDKx9XQQ-45" value="&lt;h2&gt;Pointcloud&lt;/h2&gt;" style="whiteSpace=wrap;html=1;aspect=fixed;fillColor=#d80073;strokeColor=#A50040;fontColor=#ffffff;" parent="1" vertex="1">
          <mxGeometry x="130" y="670" width="116" height="116" as="geometry" />
        </mxCell>
        <mxCell id="7zZgBYTAWc0PgDKx9XQQ-46" value="&lt;h2&gt;Pointcloud&lt;/h2&gt;" style="whiteSpace=wrap;html=1;aspect=fixed;fillColor=#d80073;strokeColor=#A50040;fontColor=#ffffff;" parent="1" vertex="1">
          <mxGeometry x="270" y="670" width="116" height="116" as="geometry" />
        </mxCell>
        <mxCell id="7zZgBYTAWc0PgDKx9XQQ-50" value="&lt;font style=&quot;font-size: 140px;&quot;&gt;[&lt;/font&gt;" style="text;html=1;strokeColor=none;fillColor=none;align=center;verticalAlign=middle;whiteSpace=wrap;rounded=0;" parent="1" vertex="1">
          <mxGeometry x="70" y="700" width="60" height="30" as="geometry" />
        </mxCell>
        <mxCell id="7zZgBYTAWc0PgDKx9XQQ-54" style="edgeStyle=orthogonalEdgeStyle;rounded=0;orthogonalLoop=1;jettySize=auto;html=1;entryX=0;entryY=0.878;entryDx=0;entryDy=0;entryPerimeter=0;strokeWidth=4;" parent="1" source="7zZgBYTAWc0PgDKx9XQQ-52" target="7zZgBYTAWc0PgDKx9XQQ-1" edge="1">
          <mxGeometry relative="1" as="geometry" />
        </mxCell>
        <mxCell id="7zZgBYTAWc0PgDKx9XQQ-52" value="&lt;font style=&quot;font-size: 140px;&quot;&gt;]&lt;/font&gt;" style="text;html=1;strokeColor=none;fillColor=none;align=center;verticalAlign=middle;whiteSpace=wrap;rounded=0;" parent="1" vertex="1">
          <mxGeometry x="390" y="700" width="60" height="30" as="geometry" />
        </mxCell>
      </root>
    </mxGraphModel>
  </diagram>
  <diagram id="ceLYR3hatt3MyuCvWSbG" name="Pointcloud">
    <mxGraphModel dx="2074" dy="1165" grid="1" gridSize="10" guides="1" tooltips="1" connect="1" arrows="1" fold="1" page="1" pageScale="1" pageWidth="1169" pageHeight="827" math="0" shadow="0">
      <root>
        <mxCell id="0" />
        <mxCell id="1" parent="0" />
        <mxCell id="0Bo6MmT1H5OVVwCYbDzk-4" style="edgeStyle=orthogonalEdgeStyle;rounded=0;orthogonalLoop=1;jettySize=auto;html=1;entryX=0;entryY=0.5;entryDx=0;entryDy=0;strokeWidth=4;" parent="1" target="0Bo6MmT1H5OVVwCYbDzk-3" edge="1">
          <mxGeometry relative="1" as="geometry">
            <mxPoint x="820" y="270" as="sourcePoint" />
          </mxGeometry>
        </mxCell>
        <mxCell id="0Bo6MmT1H5OVVwCYbDzk-10" style="edgeStyle=orthogonalEdgeStyle;rounded=0;orthogonalLoop=1;jettySize=auto;html=1;entryX=0;entryY=0.5;entryDx=0;entryDy=0;strokeWidth=4;" parent="1" edge="1">
          <mxGeometry relative="1" as="geometry">
            <mxPoint x="820" y="470" as="sourcePoint" />
            <mxPoint x="968.9499999999998" y="540" as="targetPoint" />
            <Array as="points">
              <mxPoint x="880" y="470" />
              <mxPoint x="880" y="540" />
            </Array>
          </mxGeometry>
        </mxCell>
        <mxCell id="0Bo6MmT1H5OVVwCYbDzk-2" style="edgeStyle=orthogonalEdgeStyle;orthogonalLoop=1;jettySize=auto;html=1;entryX=-0.002;entryY=0.17;entryDx=0;entryDy=0;entryPerimeter=0;strokeWidth=4;curved=1;" parent="1" source="0Bo6MmT1H5OVVwCYbDzk-1" target="BSPnX23vHcqGuOtLCXe8-1" edge="1">
          <mxGeometry relative="1" as="geometry" />
        </mxCell>
        <mxCell id="0Bo6MmT1H5OVVwCYbDzk-1" value="&lt;h2&gt;Point cloud file&lt;/h2&gt;&lt;div&gt;(txt, las, npz, obj, off,pcd, ply)&lt;/div&gt;" style="whiteSpace=wrap;html=1;aspect=fixed;fillColor=#6a00ff;fontColor=#ffffff;strokeColor=#3700CC;" parent="1" vertex="1">
          <mxGeometry x="40" y="170" width="160" height="160" as="geometry" />
        </mxCell>
        <mxCell id="0Bo6MmT1H5OVVwCYbDzk-3" value="&lt;h2&gt;Point cloud file&lt;/h2&gt;&lt;div&gt;(txt, las, npz, obj, off,pcd, ply)&lt;/div&gt;" style="whiteSpace=wrap;html=1;aspect=fixed;fillColor=#6a00ff;fontColor=#ffffff;strokeColor=#3700CC;" parent="1" vertex="1">
          <mxGeometry x="968.95" y="220" width="140" height="140" as="geometry" />
        </mxCell>
        <mxCell id="n7bAZv-qabd79tK0r4Vi-1" value="" style="group" parent="1" vertex="1" connectable="0">
          <mxGeometry x="300" y="160" width="518" height="518" as="geometry" />
        </mxCell>
        <mxCell id="BSPnX23vHcqGuOtLCXe8-1" value="&lt;h2&gt;pointcloudset.Pointcloud&lt;/h2&gt;&lt;div&gt;&lt;br&gt;&lt;/div&gt;&lt;div&gt;&lt;br&gt;&lt;/div&gt;&lt;div&gt;&lt;br&gt;&lt;/div&gt;&lt;div&gt;&lt;br&gt;&lt;/div&gt;&lt;div&gt;&lt;br&gt;&lt;/div&gt;&lt;div&gt;&lt;br&gt;&lt;/div&gt;&lt;div&gt;&lt;br&gt;&lt;/div&gt;&lt;div&gt;&lt;br&gt;&lt;/div&gt;&lt;div&gt;&lt;br&gt;&lt;/div&gt;&lt;div&gt;&lt;br&gt;&lt;/div&gt;&lt;div&gt;&lt;br&gt;&lt;/div&gt;&lt;div&gt;&lt;br&gt;&lt;/div&gt;&lt;div&gt;&lt;br&gt;&lt;/div&gt;&lt;div&gt;&lt;br&gt;&lt;/div&gt;&lt;div&gt;&lt;br&gt;&lt;/div&gt;&lt;div&gt;&lt;br&gt;&lt;/div&gt;&lt;div&gt;&lt;br&gt;&lt;/div&gt;&lt;div&gt;&lt;br&gt;&lt;/div&gt;&lt;div&gt;&lt;br&gt;&lt;/div&gt;&lt;div&gt;&lt;br&gt;&lt;/div&gt;&lt;div&gt;&lt;br&gt;&lt;/div&gt;&lt;div&gt;&lt;br&gt;&lt;/div&gt;&lt;div&gt;&lt;br&gt;&lt;/div&gt;&lt;div&gt;&lt;br&gt;&lt;/div&gt;&lt;div&gt;&lt;br&gt;&lt;/div&gt;&lt;div&gt;&lt;br&gt;&lt;/div&gt;&lt;div&gt;&lt;br&gt;&lt;/div&gt;&lt;div&gt;&lt;br&gt;&lt;/div&gt;&lt;div&gt;&lt;br&gt;&lt;/div&gt;&lt;div&gt;&lt;br&gt;&lt;/div&gt;&lt;div&gt;&lt;br&gt;&lt;/div&gt;" style="whiteSpace=wrap;html=1;aspect=fixed;fillColor=#d80073;strokeColor=#A50040;fontColor=#ffffff;movable=0;resizable=0;rotatable=0;deletable=0;editable=0;connectable=0;" parent="n7bAZv-qabd79tK0r4Vi-1" vertex="1">
          <mxGeometry width="518" height="518" as="geometry" />
        </mxCell>
        <mxCell id="IYh6OkrZqweEW-lX9Gi5-2" value="&lt;h2&gt;&lt;font style=&quot;font-size: 18px;&quot; color=&quot;#ffffff&quot;&gt;data&lt;/font&gt;&lt;/h2&gt;&lt;div&gt;&lt;font style=&quot;font-size: 12px;&quot; color=&quot;#ffffff&quot;&gt;&lt;br&gt;&lt;/font&gt;&lt;/div&gt;&lt;div&gt;&lt;font style=&quot;font-size: 12px;&quot; color=&quot;#ffffff&quot;&gt;&lt;br&gt;&lt;/font&gt;&lt;/div&gt;&lt;div&gt;&lt;font style=&quot;font-size: 12px;&quot; color=&quot;#ffffff&quot;&gt;&lt;br&gt;&lt;/font&gt;&lt;/div&gt;&lt;div style=&quot;&quot;&gt;&lt;font style=&quot;font-size: 18px;&quot; color=&quot;#ffffff&quot;&gt;points&lt;/font&gt;&lt;/div&gt;&lt;div style=&quot;font-size: 18px;&quot;&gt;&lt;font style=&quot;font-size: 18px;&quot; color=&quot;#ffffff&quot;&gt;&lt;br&gt;&lt;/font&gt;&lt;/div&gt;&lt;div style=&quot;font-size: 18px;&quot;&gt;&lt;font style=&quot;font-size: 18px;&quot; color=&quot;#ffffff&quot;&gt;timestamp&lt;/font&gt;&lt;/div&gt;&lt;div style=&quot;font-size: 18px;&quot;&gt;&lt;font style=&quot;font-size: 18px;&quot; color=&quot;#ffffff&quot;&gt;&lt;br&gt;&lt;/font&gt;&lt;/div&gt;&lt;div style=&quot;font-size: 18px;&quot;&gt;&lt;font style=&quot;font-size: 18px;&quot; color=&quot;#ffffff&quot;&gt;timestamp_str&lt;/font&gt;&lt;/div&gt;&lt;div style=&quot;font-size: 18px;&quot;&gt;&lt;font style=&quot;font-size: 18px;&quot; color=&quot;#ffffff&quot;&gt;&lt;br&gt;&lt;/font&gt;&lt;/div&gt;&lt;div style=&quot;font-size: 18px;&quot;&gt;&lt;font style=&quot;font-size: 18px;&quot; color=&quot;#ffffff&quot;&gt;orig_file&lt;/font&gt;&lt;/div&gt;&lt;div style=&quot;font-size: 18px;&quot;&gt;&lt;font style=&quot;font-size: 18px;&quot; color=&quot;#ffffff&quot;&gt;&lt;br&gt;&lt;/font&gt;&lt;/div&gt;&lt;div style=&quot;font-size: 18px;&quot;&gt;&lt;font style=&quot;font-size: 18px;&quot; color=&quot;#ffffff&quot;&gt;bounding_box&lt;/font&gt;&lt;/div&gt;&lt;div style=&quot;font-size: 18px;&quot;&gt;&lt;font style=&quot;font-size: 18px;&quot; color=&quot;#ffffff&quot;&gt;&lt;br&gt;&lt;/font&gt;&lt;/div&gt;&lt;div style=&quot;font-size: 18px;&quot;&gt;&lt;font style=&quot;font-size: 18px;&quot; color=&quot;#ffffff&quot;&gt;centroid&lt;/font&gt;&lt;/div&gt;&lt;div style=&quot;font-size: 18px;&quot;&gt;&lt;font style=&quot;font-size: 18px;&quot; color=&quot;#ffffff&quot;&gt;&lt;br&gt;&lt;/font&gt;&lt;/div&gt;&lt;div style=&quot;font-size: 18px;&quot;&gt;&lt;font style=&quot;font-size: 18px;&quot; color=&quot;#ffffff&quot;&gt;has_original_id&lt;/font&gt;&lt;/div&gt;&lt;div style=&quot;font-size: 18px;&quot;&gt;&lt;font style=&quot;font-size: 18px;&quot; color=&quot;#ffffff&quot;&gt;&lt;br&gt;&lt;/font&gt;&lt;/div&gt;" style="text;html=1;strokeColor=none;fillColor=none;align=left;verticalAlign=middle;whiteSpace=wrap;rounded=0;" parent="n7bAZv-qabd79tK0r4Vi-1" vertex="1">
          <mxGeometry x="50" y="265" width="60" height="30" as="geometry" />
        </mxCell>
        <mxCell id="nGpDiyc4GQlqArpQd_XX-1" value="" style="shape=image;verticalLabelPosition=bottom;labelBackgroundColor=default;verticalAlign=top;aspect=fixed;imageAspect=0;image=https://upload.wikimedia.org/wikipedia/commons/thumb/e/ed/Pandas_logo.svg/1200px-Pandas_logo.svg.png;" parent="n7bAZv-qabd79tK0r4Vi-1" vertex="1">
          <mxGeometry x="230" y="80" width="173.33" height="70" as="geometry" />
        </mxCell>
        <mxCell id="0Bo6MmT1H5OVVwCYbDzk-5" value="&lt;h2 style=&quot;&quot;&gt;&lt;br&gt;&lt;/h2&gt;&lt;div style=&quot;font-size: 18px;&quot;&gt;&lt;font style=&quot;font-size: 18px;&quot; color=&quot;#ffffff&quot;&gt;&lt;br&gt;&lt;/font&gt;&lt;/div&gt;&lt;div style=&quot;font-size: 18px;&quot;&gt;&lt;font style=&quot;font-size: 18px;&quot; color=&quot;#ffffff&quot;&gt;pyntcloud&lt;/font&gt;&lt;/div&gt;&lt;div style=&quot;font-size: 18px;&quot;&gt;&lt;font style=&quot;font-size: 18px;&quot; color=&quot;#ffffff&quot;&gt;&lt;br&gt;&lt;/font&gt;&lt;/div&gt;&lt;div style=&quot;font-size: 18px;&quot;&gt;&lt;font color=&quot;#ffffff&quot;&gt;datetime.datetime&lt;/font&gt;&lt;/div&gt;&lt;div style=&quot;font-size: 18px;&quot;&gt;&lt;font style=&quot;font-size: 18px;&quot; color=&quot;#ffffff&quot;&gt;&lt;br&gt;&lt;/font&gt;&lt;/div&gt;&lt;div style=&quot;font-size: 18px;&quot;&gt;&lt;font color=&quot;#ffffff&quot;&gt;str&lt;/font&gt;&lt;/div&gt;&lt;div style=&quot;font-size: 18px;&quot;&gt;&lt;font style=&quot;font-size: 18px;&quot; color=&quot;#ffffff&quot;&gt;&lt;br&gt;&lt;/font&gt;&lt;/div&gt;&lt;div style=&quot;font-size: 18px;&quot;&gt;&lt;font color=&quot;#ffffff&quot;&gt;str&lt;/font&gt;&lt;/div&gt;&lt;div style=&quot;font-size: 18px;&quot;&gt;&lt;font style=&quot;font-size: 18px;&quot; color=&quot;#ffffff&quot;&gt;&lt;br&gt;&lt;/font&gt;&lt;/div&gt;&lt;div style=&quot;font-size: 18px;&quot;&gt;&lt;font color=&quot;#ffffff&quot;&gt;pd.DataFrame&lt;/font&gt;&lt;/div&gt;&lt;div style=&quot;font-size: 18px;&quot;&gt;&lt;font style=&quot;font-size: 18px;&quot; color=&quot;#ffffff&quot;&gt;&lt;br&gt;&lt;/font&gt;&lt;/div&gt;&lt;div style=&quot;font-size: 18px;&quot;&gt;&lt;font color=&quot;#ffffff&quot;&gt;np.array&lt;/font&gt;&lt;/div&gt;&lt;div style=&quot;font-size: 18px;&quot;&gt;&lt;font style=&quot;font-size: 18px;&quot; color=&quot;#ffffff&quot;&gt;&lt;br&gt;&lt;/font&gt;&lt;/div&gt;&lt;div style=&quot;font-size: 18px;&quot;&gt;&lt;font style=&quot;font-size: 18px;&quot; color=&quot;#ffffff&quot;&gt;bool&lt;/font&gt;&lt;/div&gt;" style="text;html=1;strokeColor=none;fillColor=none;align=left;verticalAlign=middle;whiteSpace=wrap;rounded=0;" parent="n7bAZv-qabd79tK0r4Vi-1" vertex="1">
          <mxGeometry x="270" y="265" width="60" height="30" as="geometry" />
        </mxCell>
        <mxCell id="n7bAZv-qabd79tK0r4Vi-10" style="edgeStyle=none;html=1;exitX=1;exitY=0.5;exitDx=0;exitDy=0;strokeWidth=3;" parent="1" source="n7bAZv-qabd79tK0r4Vi-2" edge="1">
          <mxGeometry relative="1" as="geometry">
            <mxPoint x="300" y="405" as="targetPoint" />
          </mxGeometry>
        </mxCell>
        <mxCell id="n7bAZv-qabd79tK0r4Vi-2" value="" style="shape=image;verticalLabelPosition=bottom;labelBackgroundColor=default;verticalAlign=top;aspect=fixed;imageAspect=0;image=https://upload.wikimedia.org/wikipedia/commons/thumb/e/ed/Pandas_logo.svg/1200px-Pandas_logo.svg.png;" parent="1" vertex="1">
          <mxGeometry x="40" y="370" width="173.33" height="70" as="geometry" />
        </mxCell>
        <mxCell id="n7bAZv-qabd79tK0r4Vi-9" style="edgeStyle=none;html=1;exitX=1;exitY=0.5;exitDx=0;exitDy=0;strokeWidth=3;" parent="1" source="n7bAZv-qabd79tK0r4Vi-3" edge="1">
          <mxGeometry relative="1" as="geometry">
            <mxPoint x="300" y="540" as="targetPoint" />
          </mxGeometry>
        </mxCell>
        <mxCell id="n7bAZv-qabd79tK0r4Vi-3" value="" style="shape=image;verticalLabelPosition=bottom;labelBackgroundColor=default;verticalAlign=top;aspect=fixed;imageAspect=0;image=data:image/jpeg,/9j/4AAQSkZJRgABAQAAAQABAAD/2wCEAAoHCBEPDw8PDxESDw8PDxAPDw8PDxEQDw8QGBQZGRkUGhgcITwlHB4rIRgZJjomLS8xNTc7HCQ7QDszPy40NTEBDAwMEA8QGhISGjQhISE0NDQxNDQ0NDE0NDE0NDExNDQ0NDQxND80NDQxNDQ0NDE0ND80MTQ/NDE0PzE0NDQ0Mf/AABEIANEA8gMBIgACEQEDEQH/xAAcAAEAAgMBAQEAAAAAAAAAAAAAAQcFBggEAwL/xABNEAABAwICBAYMCggFBQAAAAABAAIDBBEFIQYHEjETIkFRYXEUFzI1VFV0gZOUstEVFkJSkZKhsbPSIyQ0U3J1guJilcHCwzNDZHOE/8QAFwEBAQEBAAAAAAAAAAAAAAAAAAECA//EAB0RAQEBAAMBAQEBAAAAAAAAAAABEQIhQTFRYRL/2gAMAwEAAhEDEQA/ALmRQpQEREBERAREQEREBERARQpQERQglERAREQEREBERAREQEREBERAREQEREBERAREQEREBERAREQEREBERAREQEREBERAREQEREBERAREQEREBERAREQEREBERAREQF+HOABJIAAuSTawX6Vca4dKOw6MUULrVFY1wcQbGOn3OPQXdyP6uZCTWX7ZmCg27NblllBUkfTsLK0OlVDUU01ZBOJaen2uGeyOUuZYXN2bO1uz3LlNbfq30lGG1wEx/U6pogqWuzYAe5eR0EnzOKmt3iujtm4L4aPV6r8ids3BfDR6vVfkVJ6xNGThde9rB+qz3mpXXuNgnNl/8JNuqy1RNJxldL9s3BfDR6vVfkTtm4L4aPV6r8i5oRNP8x09Qaf4TUzRwQ1gfLK4NjbwU7Q5x3C7mADzlbUuO45HMc17SWua4Oa4b2uBuCPOunNANJW4ph8c5I4eP9FUtHJK0d11OFnDrtyJEsxtCIirIiIgIiICIiAiIgIiICKEQSiKEEooRBKKEQSiIg8tfWx00Ms8zg2KFjpHu5mtFz51yzpPjcmJVs1XLkZHWjZ+7iHcs8w+26svXbpTmzCoHfNlqy0/Ui/3H+npVOKVvjPX6a0kgAEkkAAC5JO4ALeGaqcYc0O4GNt2g7LqiMOFxuI51kNTmi3ZdUa+Zl6ekcOD2hxZKjeOvZGfWWq/UkLy/FYy6H1tdgTaHEGNbW0R/UZhK14e1rbNa5w3C3FN+YHkWg9qbGP3UXrEa6MRXGZbHOfamxj91F6xGtd0i0bqsLkZFWMDHSM22Frg9jhexsRyjm6QujtNdIWYXQTVJsZLcHTsPy5ndyOoZuPQ0qsMLmOkuDS0Uzg7FaC89O92TpmX3HnyOx0cQ9cxZaqdblqy0oOGYgwSOtS1RbDOORtzxJPMTn0ErUHsLSWuBDgSC0ixBG8EchX4RuzXYrTcAg3BzBHKF+lX2qLSns+i7Gmdepo7MJJzkg+Q/rHcnqB5VYKrlUooRBKKEQSihEEooRBKKEQSiIgIiICIiAiIghYfSjG2YbRT1b7Hg2Hg2E24SU5NZ5z/AKrMLn7XDpP2bWCjhcDT0RIdbMPqcw835mjijp2vMWTWhV9Y+pmkqJnbcsz3Pe48rifuX0wrDpayoipoG7Uszwxg5Bfe48wAuSeheJXfqW0V4GJ2KTN/STt2KYHe2H5T+tx3dA6VG71Fi6PYPFh9JDSQjixNALrWL3nNzz0k3KyihSq5iItL1naT/BmHu4M2qam8MA5W3HGk/pH2kIKp1s6T9n1xp4nXpqIujZY3D5dz39IuNkdR51q+jeNyYdWw1kXdRO4zOSSM5Oaee4+2x5Fiib5nMnMk5klQo6ydYsDWbgsRfDjNFx6LEmh7rDixTkcYdF7E2O5wcOgV+rI1b4lFWQT6P1ptDVtc6ked8U441hfluNodII5VomLYdJR1M1NMNmSB5Y4c9tzh0EWPnRJ+Pdojjz8MroKtnctOzM3kkhdbab12zHSAupaOqZPFHNE4PjlY17HDMOa4XBXH6unUnpPtsfhUzrujvLSlxzLPlxjqPGHWeZInKerfREVYEREBERARQpQEREBERAREQEREBERBgdNa2emwysnpW7U0cD3NI3sFuNIBylou63QuV3OJJJJJJuSTcknlJXYbmgggi4IsQd1lzRrI0Z+C8QcyMWppwZqc24oaTxmdbT9hapWuNazSMDpYmlu2HSMBYXhgeCQC3aPc33X5F0HDjmNxsbGzAmNYxoa1or4wA0CwA4q50XRWqfSn4QouAldeqow1j7nOSLcx/wBlj0jpSLyfT4x474kZ/mDPyp8Y8d8SM/zBn5VvKKsNG+MeO+JGf5gz8qp/WTilbU4i7s+HsWSJjWR0+3ttjYRfaDtzrm5uOrkXTKrPXPoz2TSCvibeajB4UDe+nO89bTn1bSlWfVCIiKOr6wTvjkZIwlr2Oa9jhva9puCPOFZGtiFslPhddOBDiVRTtbUQDMlgbcPPMQTbz25FidWeAsqKh9fVENocNaaicu3Pe0FzW+a20eoDlywel2PPxSumq33DXEMiYT/04W5Nb95PSSqz9rCBe3CKuWnqYJqe/DxysdEG73P2sm25Qd1uW68Ss/UvouKmpdiMrbw0jtmEEZOqbA3/AKQQesjmRbel5073OYxz27D3MaXNvfZcRm2/LYr7IirkIiICIiCFKIgIiIChSiCFKIghSiIChSiCFqmsTRoYph8kbAOyIbzU55TIB3F+Zwy+hbYiDjlzS0lrgQQSC0ixBG8EchWZ0Rx+TDK6KrZdzWnZmjBtwkR7pvXyjpAW3a5NGOxKwV0LbQVhPCWFgypGbvM4Z9Ycq2UdJ3HYFHVMnijmicHxysa9jhuc0i4K+6p3UnpTfawqd24GWkcTyfLi/wBw/q6FcSrFmJXzkYHtc1wDmuBa4HcQRYhfRERy5p7o27C8Qlgt+heTLTOtYGJxNm9be5PUDyrBUVI+oljgibtSSvbGxo5XONguiNaejHwjh7nxNvU0l5oud7flx36RmOkBVxoBSx4ZQ1GkFU0EsDoMOjdvknN2lw89235AHKY3L0jT6qjwygp9HqVwc5obPiMjctuY2eGnz2dbkAYq3Xorqt9RNJPK4ukme573Hlc43K86NSY9uEYfJWVMNNCLyTyCNo5rnNx6ALk9AK6o0fwiKgpIKSEWZCwNvuLnHNzj0kknzqt9Smi/BxvxSZvHlvHSgjMRg8Z46zkOgdKtpIxyuiKUVZFClEEKURBCKUQQilEBQpRAREQEREBERAUKUQYjSXBY8Ro56SWwErSGutcskGbXjqNlyziVDJSzy08zdmWF7o3t5nDm6DvHWuvFT2u3RfaDMVgbm0CKrAHyfkSebuT1t5ipVlxUNDWSU00c8LiyWJzXscN4cDf6OhXAzXYzZbtUDy6w2iKhoBdbO3F3Kl1nND8AkxSuipGXDSduZ4/7cLe6d17gOkhG7J6vaj08a7CpcWqKd1NCHFsEZlD31Dr2AbxRa5uPMStX7d0XgEnrDPyrU9aWPsmmjw2ks2iw4cC1rO4fK0bJI59kXbf+LnWgpqTiurt3ReASesM/KtC040wOKmCOKHsWkp2Hg6drgRtm+0/IAbshlz861JEWcZBZ3Q7AH4pXwUrcmE7U7+RkLTdx6zuHSQsEuidU2i/wfQieZtqqsAkeCONHF8hn0cY9J6EOVyN4pKZkMbIo2hkcbGsY0Cwa1osAvspRVzQilEEIpRBCKUQQilEEIpRAUIiCVCIglFCIJRQiAiIgL4VtIyoikgmaHxSsdHI07nNIsQvuiCpu0lT+GzejYtl0Z0Diwunq4qed/ZFUNg1Tmt24mAWAaN2Vyeu3MFuiIu1Ux1KU5zNbMScyTGwklO0lT+GzejYrZRDaqbtJU/hs3o2J2kqfw2b0bFbKIbVX4bqdpYKiGZ9TLM2J7XmJzGNa+xuGkjO17KzwLKURNSoREBSoRAREQEREBERAREQSiIgIiICIiAiIgIiICIiAiIgIiICIiAiIgIiICIiAiIgIiICIiAiIgLy4hVtp4JZ3ZthjfI4DeQ1pNvsXpWI0t7213ks3slBzxi+nWJ1kzpOyZIgXEshp3OYxg5AAMzlyleL4fxPwqr9JKstqmF8bpL80vsFdJ7DeYfQFG7ccrfD+KeFVfpJVsOhOn9dTVkEdRNJUU8sjIpY5jtObtO2dprjmCCQuiNgcw+gLlOXvs7+Yn8dCXVza6cRnpqKldTyyQudUlrjG8tJbsE2NuRU2zSXEndzV1Trb9mWQq2tfH7BR+Vf8bl49Q72Np6/bLR+nittED5J50SdRWfxixTwur9JIh0kxMZmrqwBymSQALqPhovnR/WatY1kyRnBMQDXMJ4EWDXNv3bUw3+NV1RabVNbLJQVr+Ge2MywTOH6SzSA5jiMiMwQd+/fyVxpDpHXtr65jKyoaxlZUta1s8ga1olcAAL5BZnUn35/+Sf72LUdJu+OIeW1X4z08WTt6fh/E/Cqz0kqfD+J+FVnpJVeHbUwb98/1aX3J21MG/ev9Wk9yG38VPoljeIvxKhZJU1TmOqIw4PklLS2+435FuGu3FqmmqaIU88sAfBIXCKRzASHixNlZ+A4vT4hTtqaU7cTnOa1zmFh2mmxyOe9VJr8/aqDyeX2wiS7Xi1c6xZaao4DEJny0s7gOFlcXup37g7aPyTuPNkedX01wIBBBBFwQb3HOuVJtHphh0OJtG3TySvhfsg3he02G10O5+fLlCsnVHp3bg8JrHZdxRTOP0QuPsnzcyQs9jZNcddNT4Yx8Ej4X9kxt2o3FjrbLsrjkWE1I4pUVL6/sieSfYbDs8K9z9m5de19yyevHvVH5XH7LlgNQXd4h/DD97kPGO1l6d1jq6ejpZXU8FO/gjwR2XyvFtpznb7XyAHMtN+HsU8JrPSSq79I9CMGZ2RiVZHJxSaiZ7Zpd9xmGtP2BG61cGaABNJYAAfq0u4eZCX8ikPh3FPCaz0kqzGi+sGvoalhnnlqKcuAnhmcXHYJzc0nMOAzVsdtjBv30nq0vuVDaTVjKmvrKiIl0c1RJIwkFpLXOuMjuRfvjpvS2VzMNrnscWOZSyua5ps5pDTYgrmhukuInIVlUTzCaQn710ppj3rr/ACWX2SqI1Qi+N018+JN7BSpx+MN8P4n4VV+klT4fxPwqr9JKuqdhvMPoCbA5h9ATD/X8c86DafV1PWwRVEz6immkbFIyY7bm7ZsHNccwQSOi110QuUG99h/MR+OurhyJEr9IoRVBYjS3vbXeSzeyVmFjsepXT0dVCzu5YJGN6XFpsEHPeqXv3SdUvsFdKLkzCMSqMLqxNEAyogdIwtlbtbLs2ua5vOM1tnbdxf51P6v/AHKa1Za6HXKM3fZ38xP462ftu4v86n9X/uWtYBTzV2KU4Y3ammqmyuDRYDj7bndAAuUJLNW1r4730flX/G5U1huCVdWHupaaWoDCA8xRueGk7gbblcuvj9gpPKj+G5efUH+zYh/74fYKekuRV/xNxPxfVegepGhmKeL6n0Ll1SiYaqrVNoPUUEr66tbwUr4zFDBcFzWkguc62QvYABVBpN3xr/Lqn8Z660XJek3fGv8ALqr8Z6U43asDtK1vhdN9EvuTtK1vhdN9EvuWM7b2L/Op/V/7k7b2L/Op/V/7k6O1x6B6PvwvD2Ucr2SPbJI8ujvskOdcb81Wmvz9qoPJ5fbC+OjetDE6mupaeV0HBzTsY/Zh2XbJOdjfJfbX5+1UHk8vthCTK2vVJSx1GACGZgfFJLUsexwu1zS7MKqtPdEZMGqrN2jSyuL6WbO4tnsOPI5v27+q29S/eSPyio9pbXj+Cw4jTSUtQ3aZIMiO6Y8dy4HkIRNyqIxzTU4lgkdJUm9bBURna/fxBrgHn/ENx+nlWx6gu6xD+GH73KudKdHp8Lqn0s4vbOOQCzJozue3/UchVjagu7xD+GH73I1fnS0NKcLdXUFVSMc1j6iIsD3AlrTcZm3Uql7SlX4ZT/UkWu6w5KukxiraZZmNfLw8I4V4a6N2YIANrXBHmK9rdbuLAADsbIAZwG+X9SJJfGU7SlX4ZT/UkWiaWaPPwurdRyPbK5rGPL2BwbZwuBmto7b+Lf8AjegP5lqmPY1UYrVdkThrp3tZGGxMIDrZNAbnc5o1N9X7LUvn0ZdLIdqSTDC57jvLuD3npVQ6oO/dN/BN7BVw1VE6m0bfTyCz4sNLHjmcGZjzLnrAcZmw+oZVU5aJWBwbtt2m2cLHJGZ8rrVFzx23sX+dT+r/ANydt7F/nU/q/wDcmplau3vsP5iPx11cORcq6NUstdilO2Nu1JJVMmfsjigB+293QALrqtIUREVRKIiDB4porh9ZJwtTSQyyHIyOZZx6yN/nXk+IGD+L4Pqu962dEGsfEDB/F8H1Xe9ZLCcAo6Ha7EpooC7JzmMAc7oLt9uhZVEGNxfBaWuY1lXCydjHbbWvBIDrWv8AQvzhGB0lA17aOBlO2QhzwwEBxAsCbnpWURAREQFrc+g+FSPdJJQwufI9z3vIddz3G5Jz5SVsiINY+IGD+L4Pqu96fEDB/F8H1Xe9bOiDXaXQrC4ZGSxUULJGOD2PaHAtcNxGa9eL6OUVe5j6ymZUOjaWsMgJ2Wk3IFisuiDw4VhkFHEIKaNsMQc5wYy+yHHeV7kRBjMXwKkrg0VdPHOGElnCNuWk77FfjCNH6OhLzR08dOZA0P4MEbQG6+fSssiDHYrg1LWtDKunjna3NvCMB2T0HeFifiBg/i+D6rvetnRBrHxAwfxfB9V3vXrw3RPDqSQS09HDFKN0jWXcOond5lnEQfCqpmTRvilaHxyNLXsduc07wVr/AMQMH8XwfVd71s6INY+IGD+L4Pqu96fEDB/F8H1Xe9bOiDFYTgFHQ7XYlNFAX5OMbAHO6C7fboWVREBERAREQEREBERAREQEREBERAREQEREBERAREQEREBERAREQEREBERAREQf/9k=;" parent="1" vertex="1">
          <mxGeometry x="50.00000000000006" y="480" width="138.95" height="120" as="geometry" />
        </mxCell>
        <mxCell id="n7bAZv-qabd79tK0r4Vi-11" style="edgeStyle=orthogonalEdgeStyle;html=1;exitX=1;exitY=0.5;exitDx=0;exitDy=0;strokeWidth=3;rounded=0;" parent="1" source="n7bAZv-qabd79tK0r4Vi-4" edge="1">
          <mxGeometry relative="1" as="geometry">
            <mxPoint x="300" y="600" as="targetPoint" />
            <Array as="points">
              <mxPoint x="240" y="698" />
              <mxPoint x="240" y="600" />
            </Array>
          </mxGeometry>
        </mxCell>
        <mxCell id="n7bAZv-qabd79tK0r4Vi-4" value="" style="shape=image;verticalLabelPosition=bottom;labelBackgroundColor=default;verticalAlign=top;aspect=fixed;imageAspect=0;image=https://pyntcloud.readthedocs.io/en/latest/_images/pyntcloud_logo.png;clipPath=inset(0% 35.67% 9.3% 31%);" parent="1" vertex="1">
          <mxGeometry x="57.93" y="640" width="148.21" height="115.6" as="geometry" />
        </mxCell>
        <mxCell id="n7bAZv-qabd79tK0r4Vi-6" value="" style="shape=image;verticalLabelPosition=bottom;labelBackgroundColor=default;verticalAlign=top;aspect=fixed;imageAspect=0;image=data:image/jpeg,/9j/4AAQSkZJRgABAQAAAQABAAD/2wCEAAoHCBEPDw8PDxESDw8PDxAPDw8PDxEQDw8QGBQZGRkUGhgcITwlHB4rIRgZJjomLS8xNTc7HCQ7QDszPy40NTEBDAwMEA8QGhISGjQhISE0NDQxNDQ0NDE0NDE0NDExNDQ0NDQxND80NDQxNDQ0NDE0ND80MTQ/NDE0PzE0NDQ0Mf/AABEIANEA8gMBIgACEQEDEQH/xAAcAAEAAgMBAQEAAAAAAAAAAAAAAQcFBggEAwL/xABNEAABAwICBAYMCggFBQAAAAABAAIDBBEFIQYHEjETIkFRYXEUFzI1VFV0gZOUstEVFkJSkZKhsbPSIyQ0U3J1guJilcHCwzNDZHOE/8QAFwEBAQEBAAAAAAAAAAAAAAAAAAECA//EAB0RAQEBAAMBAQEBAAAAAAAAAAABEQIhQTFRYRL/2gAMAwEAAhEDEQA/ALmRQpQEREBERAREQEREBERARQpQERQglERAREQEREBERAREQEREBERAREQEREBERAREQEREBERAREQEREBERAREQEREBERAREQEREBERAREQEREBERAREQEREBERAREQF+HOABJIAAuSTawX6Vca4dKOw6MUULrVFY1wcQbGOn3OPQXdyP6uZCTWX7ZmCg27NblllBUkfTsLK0OlVDUU01ZBOJaen2uGeyOUuZYXN2bO1uz3LlNbfq30lGG1wEx/U6pogqWuzYAe5eR0EnzOKmt3iujtm4L4aPV6r8ids3BfDR6vVfkVJ6xNGThde9rB+qz3mpXXuNgnNl/8JNuqy1RNJxldL9s3BfDR6vVfkTtm4L4aPV6r8i5oRNP8x09Qaf4TUzRwQ1gfLK4NjbwU7Q5x3C7mADzlbUuO45HMc17SWua4Oa4b2uBuCPOunNANJW4ph8c5I4eP9FUtHJK0d11OFnDrtyJEsxtCIirIiIgIiICIiAiIgIiICKEQSiKEEooRBKKEQSiIg8tfWx00Ms8zg2KFjpHu5mtFz51yzpPjcmJVs1XLkZHWjZ+7iHcs8w+26svXbpTmzCoHfNlqy0/Ui/3H+npVOKVvjPX6a0kgAEkkAAC5JO4ALeGaqcYc0O4GNt2g7LqiMOFxuI51kNTmi3ZdUa+Zl6ekcOD2hxZKjeOvZGfWWq/UkLy/FYy6H1tdgTaHEGNbW0R/UZhK14e1rbNa5w3C3FN+YHkWg9qbGP3UXrEa6MRXGZbHOfamxj91F6xGtd0i0bqsLkZFWMDHSM22Frg9jhexsRyjm6QujtNdIWYXQTVJsZLcHTsPy5ndyOoZuPQ0qsMLmOkuDS0Uzg7FaC89O92TpmX3HnyOx0cQ9cxZaqdblqy0oOGYgwSOtS1RbDOORtzxJPMTn0ErUHsLSWuBDgSC0ixBG8EchX4RuzXYrTcAg3BzBHKF+lX2qLSns+i7Gmdepo7MJJzkg+Q/rHcnqB5VYKrlUooRBKKEQSihEEooRBKKEQSiIgIiICIiAiIghYfSjG2YbRT1b7Hg2Hg2E24SU5NZ5z/AKrMLn7XDpP2bWCjhcDT0RIdbMPqcw835mjijp2vMWTWhV9Y+pmkqJnbcsz3Pe48rifuX0wrDpayoipoG7Uszwxg5Bfe48wAuSeheJXfqW0V4GJ2KTN/STt2KYHe2H5T+tx3dA6VG71Fi6PYPFh9JDSQjixNALrWL3nNzz0k3KyihSq5iItL1naT/BmHu4M2qam8MA5W3HGk/pH2kIKp1s6T9n1xp4nXpqIujZY3D5dz39IuNkdR51q+jeNyYdWw1kXdRO4zOSSM5Oaee4+2x5Fiib5nMnMk5klQo6ydYsDWbgsRfDjNFx6LEmh7rDixTkcYdF7E2O5wcOgV+rI1b4lFWQT6P1ptDVtc6ked8U441hfluNodII5VomLYdJR1M1NMNmSB5Y4c9tzh0EWPnRJ+Pdojjz8MroKtnctOzM3kkhdbab12zHSAupaOqZPFHNE4PjlY17HDMOa4XBXH6unUnpPtsfhUzrujvLSlxzLPlxjqPGHWeZInKerfREVYEREBERARQpQEREBERAREQEREBERBgdNa2emwysnpW7U0cD3NI3sFuNIBylou63QuV3OJJJJJJuSTcknlJXYbmgggi4IsQd1lzRrI0Z+C8QcyMWppwZqc24oaTxmdbT9hapWuNazSMDpYmlu2HSMBYXhgeCQC3aPc33X5F0HDjmNxsbGzAmNYxoa1or4wA0CwA4q50XRWqfSn4QouAldeqow1j7nOSLcx/wBlj0jpSLyfT4x474kZ/mDPyp8Y8d8SM/zBn5VvKKsNG+MeO+JGf5gz8qp/WTilbU4i7s+HsWSJjWR0+3ttjYRfaDtzrm5uOrkXTKrPXPoz2TSCvibeajB4UDe+nO89bTn1bSlWfVCIiKOr6wTvjkZIwlr2Oa9jhva9puCPOFZGtiFslPhddOBDiVRTtbUQDMlgbcPPMQTbz25FidWeAsqKh9fVENocNaaicu3Pe0FzW+a20eoDlywel2PPxSumq33DXEMiYT/04W5Nb95PSSqz9rCBe3CKuWnqYJqe/DxysdEG73P2sm25Qd1uW68Ss/UvouKmpdiMrbw0jtmEEZOqbA3/AKQQesjmRbel5073OYxz27D3MaXNvfZcRm2/LYr7IirkIiICIiCFKIgIiIChSiCFKIghSiIChSiCFqmsTRoYph8kbAOyIbzU55TIB3F+Zwy+hbYiDjlzS0lrgQQSC0ixBG8EchWZ0Rx+TDK6KrZdzWnZmjBtwkR7pvXyjpAW3a5NGOxKwV0LbQVhPCWFgypGbvM4Z9Ycq2UdJ3HYFHVMnijmicHxysa9jhuc0i4K+6p3UnpTfawqd24GWkcTyfLi/wBw/q6FcSrFmJXzkYHtc1wDmuBa4HcQRYhfRERy5p7o27C8Qlgt+heTLTOtYGJxNm9be5PUDyrBUVI+oljgibtSSvbGxo5XONguiNaejHwjh7nxNvU0l5oud7flx36RmOkBVxoBSx4ZQ1GkFU0EsDoMOjdvknN2lw89235AHKY3L0jT6qjwygp9HqVwc5obPiMjctuY2eGnz2dbkAYq3Xorqt9RNJPK4ukme573Hlc43K86NSY9uEYfJWVMNNCLyTyCNo5rnNx6ALk9AK6o0fwiKgpIKSEWZCwNvuLnHNzj0kknzqt9Smi/BxvxSZvHlvHSgjMRg8Z46zkOgdKtpIxyuiKUVZFClEEKURBCKUQQilEBQpRAREQEREBERAUKUQYjSXBY8Ro56SWwErSGutcskGbXjqNlyziVDJSzy08zdmWF7o3t5nDm6DvHWuvFT2u3RfaDMVgbm0CKrAHyfkSebuT1t5ipVlxUNDWSU00c8LiyWJzXscN4cDf6OhXAzXYzZbtUDy6w2iKhoBdbO3F3Kl1nND8AkxSuipGXDSduZ4/7cLe6d17gOkhG7J6vaj08a7CpcWqKd1NCHFsEZlD31Dr2AbxRa5uPMStX7d0XgEnrDPyrU9aWPsmmjw2ks2iw4cC1rO4fK0bJI59kXbf+LnWgpqTiurt3ReASesM/KtC040wOKmCOKHsWkp2Hg6drgRtm+0/IAbshlz861JEWcZBZ3Q7AH4pXwUrcmE7U7+RkLTdx6zuHSQsEuidU2i/wfQieZtqqsAkeCONHF8hn0cY9J6EOVyN4pKZkMbIo2hkcbGsY0Cwa1osAvspRVzQilEEIpRBCKUQQilEEIpRAUIiCVCIglFCIJRQiAiIgL4VtIyoikgmaHxSsdHI07nNIsQvuiCpu0lT+GzejYtl0Z0Diwunq4qed/ZFUNg1Tmt24mAWAaN2Vyeu3MFuiIu1Ux1KU5zNbMScyTGwklO0lT+GzejYrZRDaqbtJU/hs3o2J2kqfw2b0bFbKIbVX4bqdpYKiGZ9TLM2J7XmJzGNa+xuGkjO17KzwLKURNSoREBSoRAREQEREBERAREQSiIgIiICIiAiIgIiICIiAiIgIiICIiAiIgIiICIiAiIgIiICIiAiIgLy4hVtp4JZ3ZthjfI4DeQ1pNvsXpWI0t7213ks3slBzxi+nWJ1kzpOyZIgXEshp3OYxg5AAMzlyleL4fxPwqr9JKstqmF8bpL80vsFdJ7DeYfQFG7ccrfD+KeFVfpJVsOhOn9dTVkEdRNJUU8sjIpY5jtObtO2dprjmCCQuiNgcw+gLlOXvs7+Yn8dCXVza6cRnpqKldTyyQudUlrjG8tJbsE2NuRU2zSXEndzV1Trb9mWQq2tfH7BR+Vf8bl49Q72Np6/bLR+nittED5J50SdRWfxixTwur9JIh0kxMZmrqwBymSQALqPhovnR/WatY1kyRnBMQDXMJ4EWDXNv3bUw3+NV1RabVNbLJQVr+Ge2MywTOH6SzSA5jiMiMwQd+/fyVxpDpHXtr65jKyoaxlZUta1s8ga1olcAAL5BZnUn35/+Sf72LUdJu+OIeW1X4z08WTt6fh/E/Cqz0kqfD+J+FVnpJVeHbUwb98/1aX3J21MG/ev9Wk9yG38VPoljeIvxKhZJU1TmOqIw4PklLS2+435FuGu3FqmmqaIU88sAfBIXCKRzASHixNlZ+A4vT4hTtqaU7cTnOa1zmFh2mmxyOe9VJr8/aqDyeX2wiS7Xi1c6xZaao4DEJny0s7gOFlcXup37g7aPyTuPNkedX01wIBBBBFwQb3HOuVJtHphh0OJtG3TySvhfsg3he02G10O5+fLlCsnVHp3bg8JrHZdxRTOP0QuPsnzcyQs9jZNcddNT4Yx8Ej4X9kxt2o3FjrbLsrjkWE1I4pUVL6/sieSfYbDs8K9z9m5de19yyevHvVH5XH7LlgNQXd4h/DD97kPGO1l6d1jq6ejpZXU8FO/gjwR2XyvFtpznb7XyAHMtN+HsU8JrPSSq79I9CMGZ2RiVZHJxSaiZ7Zpd9xmGtP2BG61cGaABNJYAAfq0u4eZCX8ikPh3FPCaz0kqzGi+sGvoalhnnlqKcuAnhmcXHYJzc0nMOAzVsdtjBv30nq0vuVDaTVjKmvrKiIl0c1RJIwkFpLXOuMjuRfvjpvS2VzMNrnscWOZSyua5ps5pDTYgrmhukuInIVlUTzCaQn710ppj3rr/ACWX2SqI1Qi+N018+JN7BSpx+MN8P4n4VV+klT4fxPwqr9JKuqdhvMPoCbA5h9ATD/X8c86DafV1PWwRVEz6immkbFIyY7bm7ZsHNccwQSOi110QuUG99h/MR+OurhyJEr9IoRVBYjS3vbXeSzeyVmFjsepXT0dVCzu5YJGN6XFpsEHPeqXv3SdUvsFdKLkzCMSqMLqxNEAyogdIwtlbtbLs2ua5vOM1tnbdxf51P6v/AHKa1Za6HXKM3fZ38xP462ftu4v86n9X/uWtYBTzV2KU4Y3ammqmyuDRYDj7bndAAuUJLNW1r4730flX/G5U1huCVdWHupaaWoDCA8xRueGk7gbblcuvj9gpPKj+G5efUH+zYh/74fYKekuRV/xNxPxfVegepGhmKeL6n0Ll1SiYaqrVNoPUUEr66tbwUr4zFDBcFzWkguc62QvYABVBpN3xr/Lqn8Z660XJek3fGv8ALqr8Z6U43asDtK1vhdN9EvuTtK1vhdN9EvuWM7b2L/Op/V/7k7b2L/Op/V/7k6O1x6B6PvwvD2Ucr2SPbJI8ujvskOdcb81Wmvz9qoPJ5fbC+OjetDE6mupaeV0HBzTsY/Zh2XbJOdjfJfbX5+1UHk8vthCTK2vVJSx1GACGZgfFJLUsexwu1zS7MKqtPdEZMGqrN2jSyuL6WbO4tnsOPI5v27+q29S/eSPyio9pbXj+Cw4jTSUtQ3aZIMiO6Y8dy4HkIRNyqIxzTU4lgkdJUm9bBURna/fxBrgHn/ENx+nlWx6gu6xD+GH73KudKdHp8Lqn0s4vbOOQCzJozue3/UchVjagu7xD+GH73I1fnS0NKcLdXUFVSMc1j6iIsD3AlrTcZm3Uql7SlX4ZT/UkWu6w5KukxiraZZmNfLw8I4V4a6N2YIANrXBHmK9rdbuLAADsbIAZwG+X9SJJfGU7SlX4ZT/UkWiaWaPPwurdRyPbK5rGPL2BwbZwuBmto7b+Lf8AjegP5lqmPY1UYrVdkThrp3tZGGxMIDrZNAbnc5o1N9X7LUvn0ZdLIdqSTDC57jvLuD3npVQ6oO/dN/BN7BVw1VE6m0bfTyCz4sNLHjmcGZjzLnrAcZmw+oZVU5aJWBwbtt2m2cLHJGZ8rrVFzx23sX+dT+r/ANydt7F/nU/q/wDcmplau3vsP5iPx11cORcq6NUstdilO2Nu1JJVMmfsjigB+293QALrqtIUREVRKIiDB4porh9ZJwtTSQyyHIyOZZx6yN/nXk+IGD+L4Pqu962dEGsfEDB/F8H1Xe9ZLCcAo6Ha7EpooC7JzmMAc7oLt9uhZVEGNxfBaWuY1lXCydjHbbWvBIDrWv8AQvzhGB0lA17aOBlO2QhzwwEBxAsCbnpWURAREQFrc+g+FSPdJJQwufI9z3vIddz3G5Jz5SVsiINY+IGD+L4Pqu96fEDB/F8H1Xe9bOiDXaXQrC4ZGSxUULJGOD2PaHAtcNxGa9eL6OUVe5j6ymZUOjaWsMgJ2Wk3IFisuiDw4VhkFHEIKaNsMQc5wYy+yHHeV7kRBjMXwKkrg0VdPHOGElnCNuWk77FfjCNH6OhLzR08dOZA0P4MEbQG6+fSssiDHYrg1LWtDKunjna3NvCMB2T0HeFifiBg/i+D6rvetnRBrHxAwfxfB9V3vXrw3RPDqSQS09HDFKN0jWXcOond5lnEQfCqpmTRvilaHxyNLXsduc07wVr/AMQMH8XwfVd71s6INY+IGD+L4Pqu96fEDB/F8H1Xe9bOiDFYTgFHQ7XYlNFAX5OMbAHO6C7fboWVREBERAREQEREBERAREQEREBERAREQEREBERAREQEREBERAREQEREBERAREQf/9k=;" parent="1" vertex="1">
          <mxGeometry x="977.19" y="480" width="138.95" height="120" as="geometry" />
        </mxCell>
        <mxCell id="n7bAZv-qabd79tK0r4Vi-7" value="" style="shape=image;verticalLabelPosition=bottom;labelBackgroundColor=default;verticalAlign=top;aspect=fixed;imageAspect=0;image=https://pyntcloud.readthedocs.io/en/latest/_images/pyntcloud_logo.png;clipPath=inset(0% 35.67% 9.3% 31%);" parent="1" vertex="1">
          <mxGeometry x="1020.0000000000001" y="620" width="148.21" height="115.6" as="geometry" />
        </mxCell>
        <mxCell id="n7bAZv-qabd79tK0r4Vi-8" value="" style="shape=image;verticalLabelPosition=bottom;labelBackgroundColor=default;verticalAlign=top;aspect=fixed;imageAspect=0;image=https://upload.wikimedia.org/wikipedia/commons/thumb/e/ed/Pandas_logo.svg/1200px-Pandas_logo.svg.png;" parent="1" vertex="1">
          <mxGeometry x="960" y="390" width="173.33" height="70" as="geometry" />
        </mxCell>
        <mxCell id="n7bAZv-qabd79tK0r4Vi-13" value="" style="endArrow=classic;html=1;strokeWidth=4;edgeStyle=orthogonalEdgeStyle;rounded=0;" parent="1" edge="1">
          <mxGeometry width="50" height="50" relative="1" as="geometry">
            <mxPoint x="820" y="620" as="sourcePoint" />
            <mxPoint x="1000" y="660" as="targetPoint" />
            <Array as="points">
              <mxPoint x="920" y="620" />
              <mxPoint x="920" y="660" />
            </Array>
          </mxGeometry>
        </mxCell>
        <mxCell id="n7bAZv-qabd79tK0r4Vi-14" style="edgeStyle=orthogonalEdgeStyle;rounded=0;orthogonalLoop=1;jettySize=auto;html=1;entryX=0;entryY=0.5;entryDx=0;entryDy=0;strokeWidth=4;" parent="1" edge="1">
          <mxGeometry relative="1" as="geometry">
            <mxPoint x="818" y="350" as="sourcePoint" />
            <mxPoint x="966.9499999999998" y="420" as="targetPoint" />
            <Array as="points">
              <mxPoint x="878" y="350" />
              <mxPoint x="878" y="420" />
            </Array>
          </mxGeometry>
        </mxCell>
      </root>
    </mxGraphModel>
  </diagram>
</mxfile>
